<svg width="30" height="30" viewBox="0 0 30 30" fill="none" xmlns="http://www.w3.org/2000/svg">
<circle cx="15" cy="15" r="14" stroke="#A2A6B0" stroke-width="2"/>
<path d="M18.8926 10.375C19.9608 10.3751 20.8024 10.7311 21.3711 11.2783C21.937 11.8228 22.2939 12.6141 22.2939 13.6094C22.2939 14.6804 21.8645 15.593 21.1289 16.4766C20.5628 17.1566 19.8484 17.7808 19.0605 18.4189L18.251 19.0645C17.3067 19.8098 16.2536 20.6415 15.3955 21.5713C14.5382 20.6414 13.4841 19.8093 12.542 19.0645L11.7324 18.4189C10.9443 17.7805 10.2301 17.1557 9.66406 16.4756C8.92889 15.5921 8.5 14.68 8.5 13.6094C8.50002 12.6143 8.85605 11.8228 9.42188 11.2783C9.99073 10.7311 10.8335 10.375 11.9023 10.375C12.9793 10.3751 14.0116 11.1453 14.6855 11.8252L15.3955 12.542L16.1055 11.8252C16.7787 11.146 17.8143 10.375 18.8926 10.375Z" stroke="#A2A6B0" stroke-width="2"/>
</svg>
