<svg width="17" height="14" viewBox="0 0 17 14" fill="none" xmlns="http://www.w3.org/2000/svg">
<path d="M11.8926 1.375C12.9608 1.37508 13.8024 1.73113 14.3711 2.27832C14.937 2.82285 15.2939 3.61409 15.2939 4.60938C15.2939 5.68036 14.8645 6.59296 14.1289 7.47656C13.5628 8.1566 12.8484 8.78083 12.0605 9.41895L11.251 10.0645C10.3067 10.8098 9.2536 11.6415 8.39551 12.5713C7.53824 11.6414 6.48413 10.8093 5.54199 10.0645L4.73242 9.41895C3.94435 8.78055 3.23005 8.15572 2.66406 7.47559C1.92889 6.59208 1.5 5.68005 1.5 4.60938C1.50002 3.61428 1.85605 2.82283 2.42188 2.27832C2.99073 1.73107 3.83351 1.375 4.90234 1.375C5.97929 1.37512 7.0116 2.14527 7.68555 2.8252L8.39551 3.54199L9.10547 2.8252C9.77869 2.14602 10.8143 1.375 11.8926 1.375Z" stroke="#A2A6B0" stroke-width="2"/>
</svg>
